<?xml version="1.0" encoding="utf-8"?>
<!-- Generator: Adobe Illustrator 27.8.1, SVG Export Plug-In . SVG Version: 6.00 Build 0)  -->
<svg version="1.1" id="Layer_1" xmlns="http://www.w3.org/2000/svg" xmlns:xlink="http://www.w3.org/1999/xlink" x="0px" y="0px"
	 viewBox="0 0 115 26" style="enable-background:new 0 0 115 26;" xml:space="preserve">
<style type="text/css">
	.st0{fill:#1D1D1B;}
	.st1{fill:#009EE2;}
	.st2{fill:#FFFFFF;}
</style>
<g>
	<circle class="st0" cx="14.4" cy="13" r="13"/>
	<polygon class="st1" points="20.2,3.1 26.1,13 20.2,22.9 8.5,22.9 2.6,13 8.5,3.1 	"/>
	<path class="st2" d="M19.6,7.7c-2.6,1.2-5.2,2.4-7.8,3.5c-0.1,0-0.1,0.1-0.1,0.1l0,0c-0.9,2.3-1.7,4.6-2.6,6.9
		c2.3-0.9,4.6-1.7,6.9-2.6c0,0,0,0,0,0c0.1,0,0.1-0.1,0.1-0.1C17.3,13,18.4,10.4,19.6,7.7c0.1,0,0.1,0,0.1,0
		C19.6,7.7,19.6,7.7,19.6,7.7z M15.3,15.2l-2.4-0.9l-0.8-2.6l6.4-3L15.3,15.2z"/>
</g>
<g>
	<path d="M53.7,18.2c0,4.8-3.3,7.2-9.9,7.2h-5.9V0.7h4.8c3.7,0,6.2,0.5,7.6,1.6s2.1,2.5,2.1,4.5c0,1.4-0.4,2.5-1.2,3.4
		c-0.8,0.9-1.9,1.5-3.2,1.8c1.6,0.2,3,0.9,4.1,2.1C53.2,15.2,53.7,16.5,53.7,18.2z M43.5,10.9c2.2,0,3.7-0.3,4.5-0.9
		s1.3-1.5,1.3-2.6c0-1.6-0.5-2.7-1.3-3.3c-0.6-0.4-1.4-0.7-2.4-0.8s-2.2-0.2-3.6-0.2H41v7.8L43.5,10.9L43.5,10.9z M44.2,13.5H41v9.4
		h2.7c2.3,0,4-0.3,5.1-1s1.7-1.9,1.7-3.8s-0.5-3.1-1.6-3.7C47.7,13.8,46.2,13.5,44.2,13.5z"/>
	<path d="M59.2,21c1.8,1.4,3.9,2.2,6.3,2.2c1.3,0,2.3-0.4,3.1-1.2s1.1-1.9,1.1-3.1s-0.4-2.3-1.1-2.9s-1.7-1.2-2.7-1.6l-1-0.4
		c-1.9-0.8-3.2-1.4-3.9-1.9c-0.7-0.5-1.2-1-1.6-1.4c-0.8-1-1.2-2.3-1.2-3.8c0-2.1,0.7-3.7,2.1-4.8c1.4-1.1,3.2-1.7,5.4-1.7
		c2.8,0,4.9,0.6,6.5,1.8L71,4.5c-1.4-1.1-3.2-1.7-5.2-1.7c-1.3,0-2.3,0.4-3.1,1.1s-1.2,1.7-1.2,3s0.7,2.3,2.1,3.1
		c0.5,0.3,1.3,0.7,2.4,1.1s2.2,0.9,3.2,1.5s2,1.3,2.7,2.3c0.7,1,1.1,2.2,1.1,3.7c0,2.4-0.7,4.2-2.1,5.4s-3.2,1.9-5.6,1.9
		c-3,0-5.4-0.7-7.4-2L59.2,21z"/>
	<path d="M84.1,22.9h9.5l-0.2,2.4H81V0.7h3.1L84.1,22.9L84.1,22.9z"/>
	<path d="M115,0.7v2.4h-7v22.2h-3.1V3.1h-7V0.7H115z"/>
</g>
<g>
	<path d="M-405.9,12.2c0.1-87.2,71.6-158.7,158.8-158.7C-159.5-146.5-88-75-88,12.5c0,87.6-71.5,159-159.1,159
		C-334.5,171.5-406,99.8-405.9,12.2z M-346.4,13.1c0.5,4.6,0.9,9.7,1.6,14.8c6.7,44.8,45.1,80.3,90.1,83.4
		c72.1,4.9,125-64.7,100.6-132.7c-8-22.3-22.5-39.5-42.9-51.5c-4.9-2.9-10-1.7-12.7,2.7c-2.7,4.3-1.5,9.2,3.2,12.6
		c1.4,1,2.8,1.8,4.2,2.7c27.5,18.3,41.7,53.2,34.3,84.6c-10,42.7-48.8,69-92.1,62.6c-36.7-5.4-66.4-38.1-67.7-75.2
		c-1.1-31.7,12-56.4,38.6-73.7c6-3.9,7.7-9,4.6-13.8c-3-4.6-8.1-5.3-14-1.6C-329.6-52.4-344.7-23.7-346.4,13.1z M-238-62
		c0-9.6,0-19.3,0-28.9c0-6.8-3.5-10.7-9.2-10.6c-5.5,0.1-8.8,4-8.8,10.5c-0.1,19-0.1,37.9,0,56.9c0,6.7,3.6,10.7,9.2,10.6
		c5.4-0.1,8.8-4,8.8-10.5C-237.9-43.3-238-52.7-238-62z"/>
</g>
</svg>
