<?xml version="1.0" encoding="utf-8"?>
<!-- Generator: Adobe Illustrator 27.8.1, SVG Export Plug-In . SVG Version: 6.00 Build 0)  -->
<svg version="1.1" id="Capa_1" xmlns="http://www.w3.org/2000/svg" xmlns:xlink="http://www.w3.org/1999/xlink" x="0px" y="0px"
	 viewBox="0 0 612 92.55" style="enable-background:new 0 0 612 92.55;" xml:space="preserve">
<style type="text/css">
	.st0{fill:#009FE3;}
	.st1{fill:#FFFFFF;}
</style>
<g>
	<circle cx="114.36" cy="40.49" r="25"/>
	<polygon class="st0" points="125.67,21.5 136.97,40.49 125.67,59.49 103.05,59.49 91.75,40.49 103.05,21.5 	"/>
	<path class="st1" d="M124.36,30.34c-4.99,2.27-9.99,4.54-14.98,6.82c-0.11,0.05-0.23,0.16-0.28,0.27l0.03,0.03
		c-1.66,4.43-3.31,8.83-4.97,13.26c4.45-1.67,8.85-3.32,13.29-4.98c-0.02-0.01-0.03-0.01-0.04-0.02c0.11-0.05,0.22-0.16,0.27-0.27
		c2.28-4.99,4.55-9.99,6.82-14.98c0.03-0.06,0.05-0.12,0.08-0.21C124.47,30.29,124.41,30.31,124.36,30.34z M116.25,44.7l-4.68-1.65
		L110.1,38l12.3-5.69L116.25,44.7z"/>
</g>
<g>
	<g>
		<path d="M171.9,49.03c0,7.2-4.95,10.79-14.86,10.79h-8.95V22.66h7.3c5.58,0,9.41,0.79,11.48,2.38c2.07,1.59,3.1,3.83,3.1,6.74
			c0,2.13-0.6,3.83-1.79,5.11c-1.2,1.28-2.82,2.19-4.86,2.74c2.46,0.37,4.5,1.41,6.13,3.13C171.08,44.48,171.9,46.57,171.9,49.03z
			 M156.41,37.99c3.26,0,5.52-0.48,6.78-1.43c1.26-0.96,1.89-2.26,1.89-3.9c0-2.46-0.67-4.1-2.02-4.94
			c-0.95-0.61-2.14-1.01-3.56-1.17c-1.43-0.17-3.25-0.25-5.46-0.25h-1.3v11.69H156.41z M157.54,42h-4.79v14.18h4.01
			c3.47,0,6.04-0.51,7.72-1.55c1.67-1.03,2.51-2.92,2.51-5.67c0-2.75-0.82-4.6-2.47-5.55C162.87,42.47,160.54,42,157.54,42z"/>
		<path d="M185.01,58.54c-1.91-1.27-3.33-2.98-4.25-5.14s-1.38-4.58-1.38-7.29s0.43-5.14,1.28-7.29s2.14-3.89,3.84-5.21
			c1.7-1.32,3.58-1.98,5.62-1.98c3.86,0,6.68,1.32,8.48,3.96s2.69,5.89,2.69,9.75v1.52h-17.33c0.1,2.81,0.8,5.19,2.11,7.15
			c1.3,1.96,3.26,2.94,5.87,2.94c1.74-0.17,4.18-1.11,7.3-2.84l1.5,3.09c-2.16,2.16-5.11,3.24-8.85,3.24
			C189.21,60.45,186.92,59.81,185.01,58.54z M196.95,43.55c-0.33-5.6-2.29-8.4-5.88-8.4c-4.06,0-6.37,2.8-6.96,8.4H196.95z"/>
		<path d="M215.64,58.54c-1.91-1.27-3.33-2.98-4.25-5.14s-1.38-4.58-1.38-7.29s0.43-5.14,1.28-7.29s2.14-3.89,3.84-5.21
			c1.7-1.32,3.58-1.98,5.62-1.98c3.86,0,6.68,1.32,8.48,3.96s2.69,5.89,2.69,9.75v1.52H214.6c0.1,2.81,0.8,5.19,2.11,7.15
			c1.3,1.96,3.26,2.94,5.87,2.94c1.74-0.17,4.18-1.11,7.3-2.84l1.5,3.09c-2.16,2.16-5.11,3.24-8.85,3.24
			C219.85,60.45,217.56,59.81,215.64,58.54z M227.59,43.55c-0.33-5.6-2.29-8.4-5.88-8.4c-4.06,0-6.37,2.8-6.96,8.4H227.59z"/>
		<path d="M241.37,53.32c2.66,2.18,5.82,3.27,9.5,3.27c1.99,0,3.53-0.61,4.61-1.83c1.08-1.22,1.62-2.8,1.62-4.75
			s-0.56-3.42-1.68-4.42c-1.12-1.01-2.48-1.83-4.08-2.48l-1.5-0.6c-2.83-1.13-4.78-2.09-5.87-2.87s-1.88-1.5-2.38-2.14
			c-1.18-1.53-1.77-3.42-1.77-5.66c0-3.11,1.06-5.52,3.17-7.24c2.11-1.72,4.83-2.58,8.15-2.58c4.19,0,7.45,0.92,9.8,2.77l-1.75,3.59
			c-2.16-1.68-4.76-2.52-7.8-2.52c-1.96,0-3.52,0.54-4.67,1.61c-1.16,1.07-1.73,2.57-1.73,4.49s1.06,3.49,3.17,4.72
			c0.8,0.45,2.01,0.99,3.63,1.62c1.62,0.63,3.24,1.37,4.86,2.22c1.62,0.85,2.98,1.99,4.08,3.44c1.1,1.45,1.65,3.29,1.65,5.53
			c0,3.57-1.03,6.29-3.1,8.16c-2.07,1.87-4.9,2.8-8.49,2.8c-4.47,0-8.19-0.99-11.17-2.97L241.37,53.32z"/>
		<path d="M290.95,35.64c1.98,2.66,2.97,6.13,2.97,10.42c0,4.29-1.07,7.76-3.22,10.41c-2.14,2.65-5.05,3.98-8.73,3.98
			c-1.96,0-3.71-0.37-5.23-1.12c-1.53-0.75-2.77-1.78-3.71-3.09c-1.91-2.64-2.87-6.08-2.87-10.32s1.05-7.67,3.17-10.31
			c2.11-2.63,5.08-3.95,8.91-3.95C286.07,31.65,288.98,32.98,290.95,35.64z M281.98,56.96c3.17,0,5.33-1.58,6.48-4.74
			c0.62-1.7,0.92-3.44,0.92-5.22c0-1.79-0.07-3.18-0.2-4.18c-0.3-2.26-1.02-4.1-2.16-5.53c-1.14-1.43-2.82-2.14-5.05-2.14
			c-3.09,0-5.2,1.61-6.33,4.84c-0.6,1.73-0.9,3.54-0.9,5.43c0,3.36,0.52,6.12,1.57,8.29C277.37,55.87,279.25,56.96,281.98,56.96z"/>
		<path d="M323.26,59.82h-3.61c-3.21,0-5.5-0.33-6.88-1c-0.8-0.38-1.43-0.82-1.89-1.32c-1.23-1.28-1.87-4.1-1.92-8.48V24.3h-8.18
			v-3.49h12.71v27.99c0,3.31,0.3,5.33,0.91,6.08c0.61,0.75,1.37,1.18,2.28,1.28s1.84,0.16,2.79,0.16h4.01L323.26,59.82z"/>
		<path d="M353.9,50.95c0,6.33-3.52,9.5-10.57,9.5c-7.05,0-10.57-3.17-10.57-9.5V32.48h4.54v18.87c0,1.94,0.48,3.37,1.45,4.26
			s2.49,1.35,4.59,1.35s3.62-0.45,4.59-1.35s1.45-2.32,1.45-4.26V32.48h4.54V50.95z"/>
		<path d="M373.17,35.97v12.84c0,1.6,0.09,2.86,0.26,3.79s0.52,1.69,1.05,2.27c0.52,0.58,1.2,0.97,2.03,1.17
			c0.83,0.2,1.96,0.3,3.39,0.3h5.01l-0.25,3.49h-4.59c-4.7,0-7.84-0.86-9.4-2.59c-1.01-1.13-1.64-2.95-1.87-5.46
			c-0.12-1.11-0.17-2.48-0.17-4.11V35.97h-7.73l0.5-3.49h7.23v-9.42l4.54-1.35v10.77h11.52v3.49H373.17z"/>
		<path d="M395.63,35.97v-3.49h12.34v23.86h7.83v3.49h-21.04v-3.49h8.67V35.97H395.63z M402.68,25.27v-2.47
			c0-0.6,0.34-1.13,1.01-1.58s1.34-0.69,2.01-0.69s1.33,0.23,2.01,0.69s1.01,0.98,1.01,1.58v2.47c0,0.6-0.34,1.13-1.01,1.58
			s-1.34,0.69-2.01,0.69s-1.33-0.23-2.01-0.69S402.68,25.87,402.68,25.27z"/>
		<path d="M444.14,35.64c1.98,2.66,2.97,6.13,2.97,10.42c0,4.29-1.07,7.76-3.22,10.41c-2.14,2.65-5.05,3.98-8.73,3.98
			c-1.96,0-3.71-0.37-5.23-1.12c-1.53-0.75-2.77-1.78-3.71-3.09c-1.91-2.64-2.87-6.08-2.87-10.32s1.05-7.67,3.17-10.31
			c2.11-2.63,5.08-3.95,8.91-3.95C439.26,31.65,442.16,32.98,444.14,35.64z M435.16,56.96c3.17,0,5.33-1.58,6.48-4.74
			c0.62-1.7,0.92-3.44,0.92-5.22c0-1.79-0.07-3.18-0.2-4.18c-0.3-2.26-1.02-4.1-2.16-5.53c-1.14-1.43-2.82-2.14-5.05-2.14
			c-3.09,0-5.2,1.61-6.33,4.84c-0.6,1.73-0.9,3.54-0.9,5.43c0,3.36,0.52,6.12,1.57,8.29C430.55,55.87,432.44,56.96,435.16,56.96z"/>
		<path d="M468.32,31.65c5.67,0,8.5,3.59,8.5,10.77v17.4h-4.54V42.97c0-1.93-0.1-3.31-0.3-4.14c-0.2-0.83-0.5-1.51-0.9-2.04
			c-0.85-1.1-2.24-1.65-4.16-1.65c-1.94,0-3.59,0.57-4.94,1.7c-1.35,1.13-2.02,2.63-2.02,4.49v18.5h-4.54V32.48h4.16l0.25,2.97
			C461.66,32.92,464.48,31.65,468.32,31.65z"/>
		<path d="M505,47.06c1.09,1.26,1.63,3.09,1.63,5.47s-0.91,4.3-2.73,5.75c-1.82,1.45-4.1,2.17-6.84,2.17
			c-1.96,0-3.86-0.25-5.71-0.74c-1.84-0.49-3.21-1.07-4.09-1.73l1.12-3.27c0.7,0.43,1.8,0.87,3.32,1.31
			c1.51,0.44,3.15,0.66,4.92,0.66c1.77,0,3.18-0.37,4.24-1.11c1.06-0.74,1.58-1.72,1.58-2.95s-0.26-2.2-0.79-2.9
			c-0.52-0.71-1.53-1.24-3.03-1.61L494,46.99c-2.68-0.66-4.45-1.63-5.33-2.9s-1.32-2.85-1.32-4.75s0.77-3.64,2.31-5.23
			c1.54-1.6,3.78-2.41,6.72-2.44h0.32c3.31,0,6.12,0.62,8.45,1.87l-1,3.19c-2.43-1.03-4.89-1.55-7.38-1.55
			c-1.54,0.02-2.81,0.4-3.8,1.16c-0.99,0.76-1.48,1.71-1.48,2.85c0,1.15,0.25,2.01,0.75,2.58c0.5,0.57,1.45,1.03,2.84,1.36
			l4.76,1.17C502.19,44.88,503.91,45.8,505,47.06z"/>
	</g>
	<path d="M287.56,40.45c-2.75,1.25-5.51,2.5-8.26,3.76c-0.06,0.03-0.12,0.09-0.15,0.15l0.02,0.02c-0.92,2.44-1.83,4.87-2.74,7.32
		c2.45-0.92,4.88-1.83,7.33-2.75c-0.01,0-0.02-0.01-0.02-0.01c0.06-0.03,0.12-0.09,0.15-0.15c1.26-2.75,2.51-5.51,3.76-8.26
		c0.01-0.03,0.02-0.06,0.04-0.12C287.62,40.43,287.59,40.44,287.56,40.45z M283.08,48.37l-2.58-0.91l-0.81-2.78l6.78-3.14
		L283.08,48.37z"/>
	<path d="M440.74,41.01c-2.75,1.25-5.51,2.5-8.26,3.76c-0.06,0.03-0.12,0.09-0.15,0.15l0.02,0.02c-0.92,2.44-1.83,4.87-2.74,7.32
		c2.45-0.92,4.88-1.83,7.33-2.75c-0.01,0-0.02-0.01-0.02-0.01c0.06-0.03,0.12-0.09,0.15-0.15c1.26-2.75,2.51-5.51,3.76-8.26
		c0.01-0.03,0.02-0.06,0.04-0.12C440.8,40.98,440.77,40.99,440.74,41.01z M436.27,48.93l-2.58-0.91l-0.81-2.78l6.78-3.14
		L436.27,48.93z"/>
</g>
</svg>
